<mxfile host="app.diagrams.net" modified="2022-06-26T19:21:33.602Z" agent="5.0 (Windows NT 10.0; Win64; x64) AppleWebKit/537.36 (KHTML, like Gecko) Chrome/103.0.5060.53 Safari/537.36" etag="e-dGzgFRY2RNhr3eJ90l" version="20.0.1" type="github" pages="2">
  <diagram id="oizCWcSpeDdsfs_mUZxO" name="Page-1">
    <mxGraphModel dx="1038" dy="2921" grid="1" gridSize="10" guides="1" tooltips="1" connect="1" arrows="1" fold="1" page="1" pageScale="1" pageWidth="827" pageHeight="1169" math="0" shadow="0">
      <root>
        <mxCell id="0" />
        <mxCell id="1" parent="0" />
        <mxCell id="F7dksEA1rS3Q4TjH5Xwl-1" value="" style="rounded=0;whiteSpace=wrap;html=1;fillColor=none;" vertex="1" parent="1">
          <mxGeometry x="345" y="-1190" width="340" height="890" as="geometry" />
        </mxCell>
        <mxCell id="IBRCfE0wTp70-XDyHgLj-4" value="" style="rounded=0;whiteSpace=wrap;html=1;fillColor=none;" parent="1" vertex="1">
          <mxGeometry x="990" y="-1200" width="340" height="850" as="geometry" />
        </mxCell>
        <mxCell id="IBRCfE0wTp70-XDyHgLj-19" style="rounded=0;orthogonalLoop=1;jettySize=auto;html=1;endArrow=none;endFill=0;exitX=1;exitY=0.3333333333333333;exitDx=0;exitDy=0;exitPerimeter=0;" parent="1" source="IBRCfE0wTp70-XDyHgLj-5" edge="1">
          <mxGeometry relative="1" as="geometry">
            <mxPoint x="393.03606732214985" y="-1065.2516055219007" as="targetPoint" />
          </mxGeometry>
        </mxCell>
        <mxCell id="IBRCfE0wTp70-XDyHgLj-38" style="edgeStyle=none;rounded=0;orthogonalLoop=1;jettySize=auto;html=1;endArrow=none;endFill=0;exitX=1;exitY=0.3333333333333333;exitDx=0;exitDy=0;exitPerimeter=0;" parent="1" source="IBRCfE0wTp70-XDyHgLj-5" target="IBRCfE0wTp70-XDyHgLj-37" edge="1">
          <mxGeometry relative="1" as="geometry">
            <mxPoint x="250" y="-998.79" as="sourcePoint" />
          </mxGeometry>
        </mxCell>
        <mxCell id="IBRCfE0wTp70-XDyHgLj-44" style="edgeStyle=none;rounded=0;orthogonalLoop=1;jettySize=auto;html=1;entryX=0;entryY=0;entryDx=0;entryDy=0;endArrow=none;endFill=0;exitX=1;exitY=0.3333333333333333;exitDx=0;exitDy=0;exitPerimeter=0;" parent="1" source="IBRCfE0wTp70-XDyHgLj-5" edge="1">
          <mxGeometry relative="1" as="geometry">
            <mxPoint x="250" y="-998.79" as="sourcePoint" />
            <mxPoint x="399.0380592228744" y="-731.932135623731" as="targetPoint" />
          </mxGeometry>
        </mxCell>
        <mxCell id="IBRCfE0wTp70-XDyHgLj-52" style="edgeStyle=none;rounded=0;orthogonalLoop=1;jettySize=auto;html=1;exitX=1;exitY=0.3333333333333333;exitDx=0;exitDy=0;exitPerimeter=0;entryX=0;entryY=0;entryDx=0;entryDy=0;endArrow=none;endFill=0;" parent="1" source="IBRCfE0wTp70-XDyHgLj-5" edge="1">
          <mxGeometry relative="1" as="geometry">
            <mxPoint x="381.9669914110086" y="-469.00320343559684" as="targetPoint" />
          </mxGeometry>
        </mxCell>
        <mxCell id="1G1vuEaIJRGV7UeWep0--2" style="rounded=0;orthogonalLoop=1;jettySize=auto;html=1;endArrow=none;endFill=0;exitX=1;exitY=0.3333333333333333;exitDx=0;exitDy=0;exitPerimeter=0;" parent="1" source="IBRCfE0wTp70-XDyHgLj-5" target="IBRCfE0wTp70-XDyHgLj-45" edge="1">
          <mxGeometry relative="1" as="geometry">
            <Array as="points">
              <mxPoint x="320" y="-848.79" />
            </Array>
          </mxGeometry>
        </mxCell>
        <mxCell id="riYWk4lj5S2R9eaMY5-v-11" value="" style="rounded=0;orthogonalLoop=1;jettySize=auto;html=1;entryX=0;entryY=0.5;entryDx=0;entryDy=0;endArrow=none;endFill=0;" parent="1" edge="1">
          <mxGeometry relative="1" as="geometry">
            <mxPoint x="480.00000000000864" y="-837.79" as="targetPoint" />
            <mxPoint x="250" y="-1008.79" as="sourcePoint" />
          </mxGeometry>
        </mxCell>
        <mxCell id="IBRCfE0wTp70-XDyHgLj-5" value="Aluno" style="shape=umlActor;verticalLabelPosition=bottom;verticalAlign=top;html=1;outlineConnect=0;" parent="1" vertex="1">
          <mxGeometry x="220" y="-1028.79" width="30" height="60" as="geometry" />
        </mxCell>
        <mxCell id="IBRCfE0wTp70-XDyHgLj-20" style="edgeStyle=none;rounded=0;orthogonalLoop=1;jettySize=auto;html=1;endArrow=none;endFill=0;exitX=0;exitY=0.3333333333333333;exitDx=0;exitDy=0;exitPerimeter=0;" parent="1" target="IBRCfE0wTp70-XDyHgLj-9" edge="1" source="IBRCfE0wTp70-XDyHgLj-6">
          <mxGeometry relative="1" as="geometry">
            <mxPoint x="1390" y="-1030" as="sourcePoint" />
            <Array as="points">
              <mxPoint x="720" y="-1070" />
            </Array>
          </mxGeometry>
        </mxCell>
        <mxCell id="IBRCfE0wTp70-XDyHgLj-57" style="edgeStyle=none;rounded=0;orthogonalLoop=1;jettySize=auto;html=1;exitX=0;exitY=0.3333333333333333;exitDx=0;exitDy=0;exitPerimeter=0;entryX=0;entryY=0.5;entryDx=0;entryDy=0;endArrow=none;endFill=0;" parent="1" source="IBRCfE0wTp70-XDyHgLj-6" target="IBRCfE0wTp70-XDyHgLj-56" edge="1">
          <mxGeometry relative="1" as="geometry">
            <Array as="points">
              <mxPoint x="1040" y="-1040" />
            </Array>
          </mxGeometry>
        </mxCell>
        <mxCell id="IBRCfE0wTp70-XDyHgLj-61" style="edgeStyle=none;rounded=0;orthogonalLoop=1;jettySize=auto;html=1;exitX=0;exitY=0.3333333333333333;exitDx=0;exitDy=0;exitPerimeter=0;endArrow=none;endFill=0;entryX=1;entryY=0;entryDx=0;entryDy=0;" parent="1" source="IBRCfE0wTp70-XDyHgLj-6" target="IBRCfE0wTp70-XDyHgLj-60" edge="1">
          <mxGeometry relative="1" as="geometry">
            <Array as="points">
              <mxPoint x="1030" y="-999" />
            </Array>
          </mxGeometry>
        </mxCell>
        <mxCell id="1G1vuEaIJRGV7UeWep0--6" style="edgeStyle=none;rounded=0;orthogonalLoop=1;jettySize=auto;html=1;endArrow=none;endFill=0;exitX=1;exitY=0.3333333333333333;exitDx=0;exitDy=0;exitPerimeter=0;" parent="1" source="IBRCfE0wTp70-XDyHgLj-6" target="IBRCfE0wTp70-XDyHgLj-58" edge="1">
          <mxGeometry relative="1" as="geometry" />
        </mxCell>
        <mxCell id="IBRCfE0wTp70-XDyHgLj-6" value="Administrativo" style="shape=umlActor;verticalLabelPosition=bottom;verticalAlign=top;html=1;outlineConnect=0;" parent="1" vertex="1">
          <mxGeometry x="850" y="-1028.79" width="30" height="60" as="geometry" />
        </mxCell>
        <mxCell id="IBRCfE0wTp70-XDyHgLj-9" value="UC01- Realizar Matricula" style="ellipse;whiteSpace=wrap;html=1;fillColor=#ffe6cc;strokeColor=#000000;" parent="1" vertex="1">
          <mxGeometry x="370" y="-1110" width="140" height="50" as="geometry" />
        </mxCell>
        <mxCell id="IBRCfE0wTp70-XDyHgLj-21" value="UC02 - Pagar Taxa de matrícula" style="ellipse;whiteSpace=wrap;html=1;strokeColor=#000000;fillColor=#ffe6cc;" parent="1" vertex="1">
          <mxGeometry x="420" y="-990" width="130" height="60" as="geometry" />
        </mxCell>
        <mxCell id="IBRCfE0wTp70-XDyHgLj-27" value="&amp;lt;&amp;lt;Extend&amp;gt;&amp;gt;" style="endArrow=open;endSize=12;dashed=1;html=1;rounded=0;" parent="1" target="IBRCfE0wTp70-XDyHgLj-21" edge="1">
          <mxGeometry width="160" relative="1" as="geometry">
            <mxPoint x="440" y="-1058.79" as="sourcePoint" />
            <mxPoint x="580" y="-1028.79" as="targetPoint" />
            <Array as="points">
              <mxPoint x="440" y="-1008.79" />
            </Array>
          </mxGeometry>
        </mxCell>
        <mxCell id="IBRCfE0wTp70-XDyHgLj-29" style="edgeStyle=none;rounded=0;orthogonalLoop=1;jettySize=auto;html=1;dashed=1;endArrow=none;endFill=0;fillColor=#f8cecc;strokeColor=#b85450;" parent="1" edge="1">
          <mxGeometry relative="1" as="geometry">
            <mxPoint x="440" y="-1008.79" as="targetPoint" />
            <mxPoint x="505" y="-1021.5768852459014" as="sourcePoint" />
          </mxGeometry>
        </mxCell>
        <mxCell id="IBRCfE0wTp70-XDyHgLj-28" value="NT01 - Caso aluno fique isento de pagar&amp;nbsp; não é necessaria a etapa" style="shape=note;strokeWidth=2;fontSize=14;size=20;whiteSpace=wrap;html=1;fillColor=#f8cecc;strokeColor=#000000;" parent="1" vertex="1">
          <mxGeometry x="510" y="-1060" width="175" height="60" as="geometry" />
        </mxCell>
        <mxCell id="IBRCfE0wTp70-XDyHgLj-40" style="edgeStyle=none;rounded=0;orthogonalLoop=1;jettySize=auto;html=1;exitX=0;exitY=0.3333333333333333;exitDx=0;exitDy=0;exitPerimeter=0;entryX=1;entryY=0.5;entryDx=0;entryDy=0;endArrow=none;endFill=0;" parent="1" source="IBRCfE0wTp70-XDyHgLj-32" target="IBRCfE0wTp70-XDyHgLj-39" edge="1">
          <mxGeometry relative="1" as="geometry" />
        </mxCell>
        <mxCell id="IBRCfE0wTp70-XDyHgLj-42" style="edgeStyle=none;rounded=0;orthogonalLoop=1;jettySize=auto;html=1;endArrow=none;endFill=0;" parent="1" target="IBRCfE0wTp70-XDyHgLj-41" edge="1">
          <mxGeometry relative="1" as="geometry">
            <mxPoint x="850" y="-780" as="sourcePoint" />
            <mxPoint x="780" y="-660" as="targetPoint" />
          </mxGeometry>
        </mxCell>
        <mxCell id="1G1vuEaIJRGV7UeWep0--3" style="edgeStyle=none;rounded=0;orthogonalLoop=1;jettySize=auto;html=1;entryX=0.5;entryY=0;entryDx=0;entryDy=0;endArrow=none;endFill=0;" parent="1" target="IBRCfE0wTp70-XDyHgLj-48" edge="1">
          <mxGeometry relative="1" as="geometry">
            <Array as="points">
              <mxPoint x="680" y="-710" />
            </Array>
            <mxPoint x="850" y="-780" as="sourcePoint" />
          </mxGeometry>
        </mxCell>
        <mxCell id="1G1vuEaIJRGV7UeWep0--4" style="edgeStyle=none;rounded=0;orthogonalLoop=1;jettySize=auto;html=1;endArrow=none;endFill=0;entryX=0.133;entryY=0.333;entryDx=0;entryDy=0;exitX=1;exitY=0.3333333333333333;exitDx=0;exitDy=0;exitPerimeter=0;entryPerimeter=0;" parent="1" target="IBRCfE0wTp70-XDyHgLj-68" edge="1" source="IBRCfE0wTp70-XDyHgLj-32">
          <mxGeometry relative="1" as="geometry">
            <mxPoint x="1440" y="-848" as="sourcePoint" />
          </mxGeometry>
        </mxCell>
        <mxCell id="1G1vuEaIJRGV7UeWep0--8" style="edgeStyle=none;rounded=0;orthogonalLoop=1;jettySize=auto;html=1;endArrow=none;endFill=0;exitX=1;exitY=0.3333333333333333;exitDx=0;exitDy=0;exitPerimeter=0;" parent="1" target="IBRCfE0wTp70-XDyHgLj-58" edge="1" source="IBRCfE0wTp70-XDyHgLj-32">
          <mxGeometry relative="1" as="geometry">
            <mxPoint x="1440" y="-848" as="sourcePoint" />
          </mxGeometry>
        </mxCell>
        <mxCell id="F7dksEA1rS3Q4TjH5Xwl-2" style="rounded=0;orthogonalLoop=1;jettySize=auto;html=1;exitX=1;exitY=0.3333333333333333;exitDx=0;exitDy=0;exitPerimeter=0;entryX=0;entryY=0.5;entryDx=0;entryDy=0;endArrow=none;endFill=0;" edge="1" parent="1" source="IBRCfE0wTp70-XDyHgLj-32" target="IBRCfE0wTp70-XDyHgLj-51">
          <mxGeometry relative="1" as="geometry" />
        </mxCell>
        <mxCell id="IBRCfE0wTp70-XDyHgLj-32" value="Corpo docente" style="shape=umlActor;verticalLabelPosition=bottom;verticalAlign=top;html=1;outlineConnect=0;strokeColor=#000000;" parent="1" vertex="1">
          <mxGeometry x="850" y="-800" width="30" height="60" as="geometry" />
        </mxCell>
        <mxCell id="IBRCfE0wTp70-XDyHgLj-37" value="UC03 - Pagar mensalidades" style="ellipse;whiteSpace=wrap;html=1;strokeColor=#000000;fillColor=#ffe6cc;" parent="1" vertex="1">
          <mxGeometry x="380" y="-798.79" width="120" height="40" as="geometry" />
        </mxCell>
        <mxCell id="IBRCfE0wTp70-XDyHgLj-39" value="UC10 - Planejar as aulas" style="ellipse;whiteSpace=wrap;html=1;strokeColor=#000000;fillColor=#ffe6cc;" parent="1" vertex="1">
          <mxGeometry x="1015" y="-780" width="140" height="40" as="geometry" />
        </mxCell>
        <mxCell id="IBRCfE0wTp70-XDyHgLj-41" value="UC12 - Ministrar as aulas" style="ellipse;whiteSpace=wrap;html=1;strokeColor=#000000;fillColor=#FFE6CC;" parent="1" vertex="1">
          <mxGeometry x="540" y="-758.79" width="140" height="41" as="geometry" />
        </mxCell>
        <mxCell id="IBRCfE0wTp70-XDyHgLj-43" value="UC04 - Assistir as aulas" style="ellipse;whiteSpace=wrap;html=1;strokeColor=#000000;fillColor=#FFE6CC;" parent="1" vertex="1">
          <mxGeometry x="390" y="-740" width="130" height="40" as="geometry" />
        </mxCell>
        <mxCell id="IBRCfE0wTp70-XDyHgLj-45" value="UC05 - Fazer avaliações e trabalhos" style="ellipse;whiteSpace=wrap;html=1;strokeColor=#000000;fillColor=#FFE6CC;" parent="1" vertex="1">
          <mxGeometry x="360" y="-597.79" width="140" height="49" as="geometry" />
        </mxCell>
        <mxCell id="IBRCfE0wTp70-XDyHgLj-48" value="UC13 - Avaliar os trabalhos e provas" style="ellipse;whiteSpace=wrap;html=1;strokeColor=#000000;fillColor=#FFE6CC;" parent="1" vertex="1">
          <mxGeometry x="490" y="-660" width="160" height="50" as="geometry" />
        </mxCell>
        <mxCell id="IBRCfE0wTp70-XDyHgLj-51" value="UC06 - Obter o diploma do curso" style="ellipse;whiteSpace=wrap;html=1;strokeColor=#000000;fillColor=#FFE6CC;" parent="1" vertex="1">
          <mxGeometry x="1000" y="-469" width="150" height="60" as="geometry" />
        </mxCell>
        <mxCell id="IBRCfE0wTp70-XDyHgLj-53" style="edgeStyle=none;rounded=0;orthogonalLoop=1;jettySize=auto;html=1;exitX=0.5;exitY=1;exitDx=0;exitDy=0;endArrow=none;endFill=0;" parent="1" source="IBRCfE0wTp70-XDyHgLj-48" target="IBRCfE0wTp70-XDyHgLj-48" edge="1">
          <mxGeometry relative="1" as="geometry" />
        </mxCell>
        <mxCell id="IBRCfE0wTp70-XDyHgLj-56" value="UC07 - Consultar pagamentos" style="ellipse;whiteSpace=wrap;html=1;strokeColor=#000000;fillColor=#FFE6CC;" parent="1" vertex="1">
          <mxGeometry x="1100" y="-1090" width="120" height="40" as="geometry" />
        </mxCell>
        <mxCell id="IBRCfE0wTp70-XDyHgLj-58" value="UC09 - Gerar relatorios" style="ellipse;whiteSpace=wrap;html=1;strokeColor=#000000;fillColor=#FFE6CC;" parent="1" vertex="1">
          <mxGeometry x="1020" y="-838.79" width="140" height="40" as="geometry" />
        </mxCell>
        <mxCell id="IBRCfE0wTp70-XDyHgLj-60" value="UC08 - Emitir diplomas" style="ellipse;whiteSpace=wrap;html=1;strokeColor=#000000;fillColor=#FFE6CC;" parent="1" vertex="1">
          <mxGeometry x="1080" y="-1003.79" width="140" height="35" as="geometry" />
        </mxCell>
        <mxCell id="IBRCfE0wTp70-XDyHgLj-62" value="UC14 - Aprovar/reprovar alunos" style="ellipse;whiteSpace=wrap;html=1;strokeColor=#000000;fillColor=#FFE6CC;" parent="1" vertex="1">
          <mxGeometry x="510" y="-530" width="150" height="50" as="geometry" />
        </mxCell>
        <mxCell id="IBRCfE0wTp70-XDyHgLj-68" value="UC11 - Criar trabalhos e/ou&amp;nbsp; avaliações" style="ellipse;whiteSpace=wrap;html=1;strokeColor=#000000;fillColor=#FFE6CC;" parent="1" vertex="1">
          <mxGeometry x="1060" y="-720" width="150" height="60" as="geometry" />
        </mxCell>
        <mxCell id="IBRCfE0wTp70-XDyHgLj-70" value="Sistema Educacional ABC" style="text;align=center;fontStyle=1;verticalAlign=middle;spacingLeft=3;spacingRight=3;strokeColor=none;rotatable=0;points=[[0,0.5],[1,0.5]];portConstraint=eastwest;fillColor=none;" parent="1" vertex="1">
          <mxGeometry x="750" y="-1350" width="160" height="26" as="geometry" />
        </mxCell>
        <mxCell id="1G1vuEaIJRGV7UeWep0--7" style="edgeStyle=none;rounded=0;orthogonalLoop=1;jettySize=auto;html=1;exitX=0;exitY=0.3333333333333333;exitDx=0;exitDy=0;exitPerimeter=0;endArrow=none;endFill=0;" parent="1" source="IBRCfE0wTp70-XDyHgLj-32" target="IBRCfE0wTp70-XDyHgLj-32" edge="1">
          <mxGeometry relative="1" as="geometry" />
        </mxCell>
        <mxCell id="1G1vuEaIJRGV7UeWep0--10" value="&amp;lt;&amp;lt;Include&amp;gt;&amp;gt;" style="endArrow=open;endSize=12;dashed=1;html=1;rounded=0;entryX=0.5;entryY=0;entryDx=0;entryDy=0;exitX=0.5;exitY=1;exitDx=0;exitDy=0;" parent="1" source="IBRCfE0wTp70-XDyHgLj-48" target="IBRCfE0wTp70-XDyHgLj-62" edge="1">
          <mxGeometry width="160" relative="1" as="geometry">
            <mxPoint x="990" y="-699" as="sourcePoint" />
            <mxPoint x="1150" y="-699" as="targetPoint" />
            <mxPoint as="offset" />
          </mxGeometry>
        </mxCell>
        <mxCell id="riYWk4lj5S2R9eaMY5-v-10" value="UC16 - Solicitar diploma" style="ellipse;whiteSpace=wrap;html=1;strokeColor=#000000;fillColor=#FFE6CC;" parent="1" vertex="1">
          <mxGeometry x="1120" y="-920" width="140" height="42" as="geometry" />
        </mxCell>
        <mxCell id="riYWk4lj5S2R9eaMY5-v-18" value="&amp;lt;&amp;lt;Include&amp;gt;&amp;gt;" style="endArrow=open;endSize=12;dashed=1;html=1;rounded=0;exitX=0.5;exitY=0;exitDx=0;exitDy=0;" parent="1" source="riYWk4lj5S2R9eaMY5-v-10" edge="1">
          <mxGeometry x="0.25" width="160" relative="1" as="geometry">
            <mxPoint x="1090" y="-880" as="sourcePoint" />
            <mxPoint x="1190" y="-920" as="targetPoint" />
            <mxPoint as="offset" />
            <Array as="points">
              <mxPoint x="1160" y="-970" />
            </Array>
          </mxGeometry>
        </mxCell>
        <mxCell id="F7dksEA1rS3Q4TjH5Xwl-3" value="Portal de Ensino" style="text;align=center;fontStyle=1;verticalAlign=middle;spacingLeft=3;spacingRight=3;strokeColor=none;rotatable=0;points=[[0,0.5],[1,0.5]];portConstraint=eastwest;" vertex="1" parent="1">
          <mxGeometry x="345" y="-1190" width="135" height="26" as="geometry" />
        </mxCell>
        <mxCell id="F7dksEA1rS3Q4TjH5Xwl-4" value="ERP" style="text;align=center;fontStyle=1;verticalAlign=middle;spacingLeft=3;spacingRight=3;strokeColor=none;rotatable=0;points=[[0,0.5],[1,0.5]];portConstraint=eastwest;" vertex="1" parent="1">
          <mxGeometry x="990" y="-1200" width="135" height="26" as="geometry" />
        </mxCell>
      </root>
    </mxGraphModel>
  </diagram>
  <diagram id="lc7E2QDWN7owwlIP-cte" name="Page-2">
    <mxGraphModel dx="1038" dy="583" grid="1" gridSize="10" guides="1" tooltips="1" connect="1" arrows="1" fold="1" page="1" pageScale="1" pageWidth="827" pageHeight="1169" math="0" shadow="0">
      <root>
        <mxCell id="0" />
        <mxCell id="1" parent="0" />
        <mxCell id="Y0kTQW0h1iXQvsFyuaRw-1" value="Classname" style="swimlane;fontStyle=0;childLayout=stackLayout;horizontal=1;startSize=26;fillColor=none;horizontalStack=0;resizeParent=1;resizeParentMax=0;resizeLast=0;collapsible=1;marginBottom=0;" vertex="1" parent="1">
          <mxGeometry x="40" y="40" width="140" height="104" as="geometry" />
        </mxCell>
        <mxCell id="Y0kTQW0h1iXQvsFyuaRw-2" value="+ field: type" style="text;strokeColor=none;fillColor=none;align=left;verticalAlign=top;spacingLeft=4;spacingRight=4;overflow=hidden;rotatable=0;points=[[0,0.5],[1,0.5]];portConstraint=eastwest;" vertex="1" parent="Y0kTQW0h1iXQvsFyuaRw-1">
          <mxGeometry y="26" width="140" height="26" as="geometry" />
        </mxCell>
        <mxCell id="Y0kTQW0h1iXQvsFyuaRw-3" value="+ field: type" style="text;strokeColor=none;fillColor=none;align=left;verticalAlign=top;spacingLeft=4;spacingRight=4;overflow=hidden;rotatable=0;points=[[0,0.5],[1,0.5]];portConstraint=eastwest;" vertex="1" parent="Y0kTQW0h1iXQvsFyuaRw-1">
          <mxGeometry y="52" width="140" height="26" as="geometry" />
        </mxCell>
        <mxCell id="Y0kTQW0h1iXQvsFyuaRw-4" value="+ field: type" style="text;strokeColor=none;fillColor=none;align=left;verticalAlign=top;spacingLeft=4;spacingRight=4;overflow=hidden;rotatable=0;points=[[0,0.5],[1,0.5]];portConstraint=eastwest;" vertex="1" parent="Y0kTQW0h1iXQvsFyuaRw-1">
          <mxGeometry y="78" width="140" height="26" as="geometry" />
        </mxCell>
        <mxCell id="Y0kTQW0h1iXQvsFyuaRw-5" value="Classname" style="swimlane;fontStyle=0;childLayout=stackLayout;horizontal=1;startSize=26;fillColor=none;horizontalStack=0;resizeParent=1;resizeParentMax=0;resizeLast=0;collapsible=1;marginBottom=0;" vertex="1" parent="1">
          <mxGeometry x="320" y="40" width="140" height="104" as="geometry" />
        </mxCell>
        <mxCell id="Y0kTQW0h1iXQvsFyuaRw-6" value="+ field: type" style="text;strokeColor=none;fillColor=none;align=left;verticalAlign=top;spacingLeft=4;spacingRight=4;overflow=hidden;rotatable=0;points=[[0,0.5],[1,0.5]];portConstraint=eastwest;" vertex="1" parent="Y0kTQW0h1iXQvsFyuaRw-5">
          <mxGeometry y="26" width="140" height="26" as="geometry" />
        </mxCell>
        <mxCell id="Y0kTQW0h1iXQvsFyuaRw-7" value="+ field: type" style="text;strokeColor=none;fillColor=none;align=left;verticalAlign=top;spacingLeft=4;spacingRight=4;overflow=hidden;rotatable=0;points=[[0,0.5],[1,0.5]];portConstraint=eastwest;" vertex="1" parent="Y0kTQW0h1iXQvsFyuaRw-5">
          <mxGeometry y="52" width="140" height="26" as="geometry" />
        </mxCell>
        <mxCell id="Y0kTQW0h1iXQvsFyuaRw-8" value="+ field: type" style="text;strokeColor=none;fillColor=none;align=left;verticalAlign=top;spacingLeft=4;spacingRight=4;overflow=hidden;rotatable=0;points=[[0,0.5],[1,0.5]];portConstraint=eastwest;" vertex="1" parent="Y0kTQW0h1iXQvsFyuaRw-5">
          <mxGeometry y="78" width="140" height="26" as="geometry" />
        </mxCell>
        <mxCell id="Y0kTQW0h1iXQvsFyuaRw-9" value="Classname" style="swimlane;fontStyle=0;childLayout=stackLayout;horizontal=1;startSize=26;fillColor=none;horizontalStack=0;resizeParent=1;resizeParentMax=0;resizeLast=0;collapsible=1;marginBottom=0;" vertex="1" parent="1">
          <mxGeometry x="590" y="40" width="140" height="104" as="geometry" />
        </mxCell>
        <mxCell id="Y0kTQW0h1iXQvsFyuaRw-10" value="+ field: type" style="text;strokeColor=none;fillColor=none;align=left;verticalAlign=top;spacingLeft=4;spacingRight=4;overflow=hidden;rotatable=0;points=[[0,0.5],[1,0.5]];portConstraint=eastwest;" vertex="1" parent="Y0kTQW0h1iXQvsFyuaRw-9">
          <mxGeometry y="26" width="140" height="26" as="geometry" />
        </mxCell>
        <mxCell id="Y0kTQW0h1iXQvsFyuaRw-11" value="+ field: type" style="text;strokeColor=none;fillColor=none;align=left;verticalAlign=top;spacingLeft=4;spacingRight=4;overflow=hidden;rotatable=0;points=[[0,0.5],[1,0.5]];portConstraint=eastwest;" vertex="1" parent="Y0kTQW0h1iXQvsFyuaRw-9">
          <mxGeometry y="52" width="140" height="26" as="geometry" />
        </mxCell>
        <mxCell id="Y0kTQW0h1iXQvsFyuaRw-12" value="+ field: type" style="text;strokeColor=none;fillColor=none;align=left;verticalAlign=top;spacingLeft=4;spacingRight=4;overflow=hidden;rotatable=0;points=[[0,0.5],[1,0.5]];portConstraint=eastwest;" vertex="1" parent="Y0kTQW0h1iXQvsFyuaRw-9">
          <mxGeometry y="78" width="140" height="26" as="geometry" />
        </mxCell>
      </root>
    </mxGraphModel>
  </diagram>
</mxfile>
